HIERARCHY
ROOT Hips
{
	OFFSET 0.000000 97.167313 0.000000
	CHANNELS 6 Xposition Yposition Zposition Xrotation Yrotation Zrotation
	JOINT Spine
	{
		OFFSET 0.000000 13.784798 0.064400
		CHANNELS 3 Xrotation Yrotation Zrotation
		JOINT Spine1
		{
			OFFSET 0.000000 12.037903 0.404700
			CHANNELS 3 Xrotation Yrotation Zrotation
			JOINT Spine2
			{
				OFFSET 0.000000 17.795601 0.420200
				CHANNELS 3 Xrotation Yrotation Zrotation
				JOINT Neck
				{
					OFFSET 0.000000 39.131302 11.954600
					CHANNELS 3 Xrotation Yrotation Zrotation
					JOINT Head
					{
						OFFSET 0.000000 14.456192 15.627699
						CHANNELS 3 Xrotation Yrotation Zrotation
						JOINT HeadTop_End
						{
							OFFSET 0.000000 15.703506 7.603401
							CHANNELS 3 Xrotation Yrotation Zrotation
							End Site
							{
								OFFSET 0.000000 17.447403 0.000000
							}
						}
					}
				}
				JOINT LeftShoulder
				{
					OFFSET 17.399500 24.608795 1.168800
					CHANNELS 3 Xrotation Yrotation Zrotation
					JOINT LeftArm
					{
						OFFSET 18.980635 5.765305 1.818600
						CHANNELS 3 Xrotation Yrotation Zrotation
						JOINT LeftForeArm
						{
							OFFSET 49.290169 0.000000 0.000000
							CHANNELS 3 Xrotation Yrotation Zrotation
							JOINT LeftHand
							{
								OFFSET 31.562012 0.000000 0.000000
								CHANNELS 3 Xrotation Yrotation Zrotation
								JOINT LeftHandThumb1
								{
									OFFSET 6.133995 -4.388519 7.076070
									CHANNELS 3 Xrotation Yrotation Zrotation
									JOINT LeftHandThumb2
									{
										OFFSET 6.037666 -3.485840 3.485847
										CHANNELS 3 Xrotation Yrotation Zrotation
										JOINT LeftHandThumb3
										{
											OFFSET 6.496506 -3.750763 3.750761
											CHANNELS 3 Xrotation Yrotation Zrotation
											JOINT LeftHandThumb4
											{
												OFFSET 5.616882 -3.242905 3.242910
												CHANNELS 3 Xrotation Yrotation Zrotation
												End Site
												{
													OFFSET -1.254608 7.132141 0.375429
												}
											}
										}
									}
								}
								JOINT LeftHandPinky1
								{
									OFFSET 18.920792 -0.453171 -11.426712
									CHANNELS 3 Xrotation Yrotation Zrotation
									JOINT LeftHandPinky2
									{
										OFFSET 4.919586 0.000000 0.000000
										CHANNELS 3 Xrotation Yrotation Zrotation
										JOINT LeftHandPinky3
										{
											OFFSET 5.233047 0.000000 0.000000
											CHANNELS 3 Xrotation Yrotation Zrotation
											JOINT LeftHandPinky4
											{
												OFFSET 5.571716 0.000000 0.000000
												CHANNELS 3 Xrotation Yrotation Zrotation
												End Site
												{
													OFFSET -3.459808 4.342407 -0.466164
												}
											}
										}
									}
								}
								JOINT LeftHandRing1
								{
									OFFSET 22.726120 -0.094986 -6.500475
									CHANNELS 3 Xrotation Yrotation Zrotation
									JOINT LeftHandRing2
									{
										OFFSET 6.408615 0.000000 0.000000
										CHANNELS 3 Xrotation Yrotation Zrotation
										JOINT LeftHandRing3
										{
											OFFSET 6.150223 0.000000 0.000000
											CHANNELS 3 Xrotation Yrotation Zrotation
											JOINT LeftHandRing4
											{
												OFFSET 6.145386 0.000000 0.000000
												CHANNELS 3 Xrotation Yrotation Zrotation
												End Site
												{
													OFFSET -3.671402 4.923981 -0.202372
												}
											}
										}
									}
								}
								JOINT LeftHandMiddle1
								{
									OFFSET 23.373947 0.000000 0.000001
									CHANNELS 3 Xrotation Yrotation Zrotation
									JOINT LeftHandMiddle2
									{
										OFFSET 6.996567 0.000000 0.000000
										CHANNELS 3 Xrotation Yrotation Zrotation
										JOINT LeftHandMiddle3
										{
											OFFSET 7.015945 0.000000 0.000000
											CHANNELS 3 Xrotation Yrotation Zrotation
											JOINT LeftHandMiddle4
											{
												OFFSET 7.721573 0.000000 0.000000
												CHANNELS 3 Xrotation Yrotation Zrotation
												End Site
												{
													OFFSET -4.651108 6.158463 0.251582
												}
											}
										}
									}
								}
								JOINT LeftHandIndex1
								{
									OFFSET 21.310577 -0.490082 6.209344
									CHANNELS 3 Xrotation Yrotation Zrotation
									JOINT LeftHandIndex2
									{
										OFFSET 7.536453 0.000000 0.000000
										CHANNELS 3 Xrotation Yrotation Zrotation
										JOINT LeftHandIndex3
										{
											OFFSET 7.512344 0.000000 0.000000
											CHANNELS 3 Xrotation Yrotation Zrotation
											JOINT LeftHandIndex4
											{
												OFFSET 10.212402 0.000000 0.000001
												CHANNELS 3 Xrotation Yrotation Zrotation
												End Site
												{
													OFFSET -5.180801 8.690506 1.388433
												}
											}
										}
									}
								}
							}
						}
					}
				}
				JOINT RightShoulder
				{
					OFFSET -17.399500 24.608795 1.168800
					CHANNELS 3 Xrotation Yrotation Zrotation
					JOINT RightArm
					{
						OFFSET -18.980635 5.765305 1.818600
						CHANNELS 3 Xrotation Yrotation Zrotation
						JOINT RightForeArm
						{
							OFFSET -49.290169 0.000000 0.000000
							CHANNELS 3 Xrotation Yrotation Zrotation
							JOINT RightHand
							{
								OFFSET -31.562012 0.000000 0.000000
								CHANNELS 3 Xrotation Yrotation Zrotation
								JOINT RightHandThumb1
								{
									OFFSET -6.133995 -4.388519 7.076070
									CHANNELS 3 Xrotation Yrotation Zrotation
									JOINT RightHandThumb2
									{
										OFFSET -6.037666 -3.485840 3.485847
										CHANNELS 3 Xrotation Yrotation Zrotation
										JOINT RightHandThumb3
										{
											OFFSET -6.496506 -3.750763 3.750761
											CHANNELS 3 Xrotation Yrotation Zrotation
											JOINT RightHandThumb4
											{
												OFFSET -5.616882 -3.242905 3.242910
												CHANNELS 3 Xrotation Yrotation Zrotation
												End Site
												{
													OFFSET 1.254608 7.132141 0.375429
												}
											}
										}
									}
								}
								JOINT RightHandIndex1
								{
									OFFSET -21.310577 -0.490082 6.209344
									CHANNELS 3 Xrotation Yrotation Zrotation
									JOINT RightHandIndex2
									{
										OFFSET -7.536453 0.000000 0.000000
										CHANNELS 3 Xrotation Yrotation Zrotation
										JOINT RightHandIndex3
										{
											OFFSET -7.512344 0.000000 0.000000
											CHANNELS 3 Xrotation Yrotation Zrotation
											JOINT RightHandIndex4
											{
												OFFSET -10.212402 0.000000 0.000001
												CHANNELS 3 Xrotation Yrotation Zrotation
												End Site
												{
													OFFSET 5.180801 8.690506 1.388433
												}
											}
										}
									}
								}
								JOINT RightHandMiddle1
								{
									OFFSET -23.373947 0.000000 0.000001
									CHANNELS 3 Xrotation Yrotation Zrotation
									JOINT RightHandMiddle2
									{
										OFFSET -6.996567 0.000000 0.000000
										CHANNELS 3 Xrotation Yrotation Zrotation
										JOINT RightHandMiddle3
										{
											OFFSET -7.015945 0.000000 0.000000
											CHANNELS 3 Xrotation Yrotation Zrotation
											JOINT RightHandMiddle4
											{
												OFFSET -7.721573 0.000000 0.000000
												CHANNELS 3 Xrotation Yrotation Zrotation
												End Site
												{
													OFFSET 4.651108 6.158463 0.251582
												}
											}
										}
									}
								}
								JOINT RightHandRing1
								{
									OFFSET -22.726120 -0.094986 -6.500475
									CHANNELS 3 Xrotation Yrotation Zrotation
									JOINT RightHandRing2
									{
										OFFSET -6.408615 0.000000 0.000000
										CHANNELS 3 Xrotation Yrotation Zrotation
										JOINT RightHandRing3
										{
											OFFSET -6.150223 0.000000 0.000000
											CHANNELS 3 Xrotation Yrotation Zrotation
											JOINT RightHandRing4
											{
												OFFSET -6.145386 0.000000 0.000000
												CHANNELS 3 Xrotation Yrotation Zrotation
												End Site
												{
													OFFSET 3.671402 4.923981 -0.202372
												}
											}
										}
									}
								}
								JOINT RightHandPinky1
								{
									OFFSET -18.920792 -0.453171 -11.426712
									CHANNELS 3 Xrotation Yrotation Zrotation
									JOINT RightHandPinky2
									{
										OFFSET -4.919586 0.000000 0.000000
										CHANNELS 3 Xrotation Yrotation Zrotation
										JOINT RightHandPinky3
										{
											OFFSET -5.233047 0.000000 0.000000
											CHANNELS 3 Xrotation Yrotation Zrotation
											JOINT RightHandPinky4
											{
												OFFSET -5.571716 0.000000 0.000000
												CHANNELS 3 Xrotation Yrotation Zrotation
												End Site
												{
													OFFSET 3.459808 4.342407 -0.466164
												}
											}
										}
									}
								}
							}
						}
					}
				}
			}
		}
	}
	JOINT LeftUpLeg
	{
		OFFSET 19.899099 -7.885101 -3.429500
		CHANNELS 3 Xrotation Yrotation Zrotation
		JOINT LeftLeg
		{
			OFFSET 1.745560 -36.997807 10.304700
			CHANNELS 3 Xrotation Yrotation Zrotation
			JOINT LeftFoot
			{
				OFFSET -1.745558 -29.803308 -13.615400
				CHANNELS 3 Xrotation Yrotation Zrotation
				JOINT LeftToeBase
				{
					OFFSET 1.181900 -18.539904 15.226099
					CHANNELS 3 Xrotation Yrotation Zrotation
					JOINT LeftToe_End
					{
						OFFSET -0.863701 1.402801 16.534700
						CHANNELS 3 Xrotation Yrotation Zrotation
						End Site
						{
							OFFSET 0.000000 16.616566 0.000000
						}
					}
				}
			}
		}
	}
	JOINT RightUpLeg
	{
		OFFSET -19.899099 -7.885101 -3.429500
		CHANNELS 3 Xrotation Yrotation Zrotation
		JOINT RightLeg
		{
			OFFSET -1.745560 -36.997807 10.304700
			CHANNELS 3 Xrotation Yrotation Zrotation
			JOINT RightFoot
			{
				OFFSET 1.745558 -29.803308 -13.615400
				CHANNELS 3 Xrotation Yrotation Zrotation
				JOINT RightToeBase
				{
					OFFSET -1.181900 -18.539904 15.226099
					CHANNELS 3 Xrotation Yrotation Zrotation
					JOINT RightToe_End
					{
						OFFSET 0.863701 1.402801 16.534700
						CHANNELS 3 Xrotation Yrotation Zrotation
						End Site
						{
							OFFSET 0.000000 16.616566 0.000000
						}
					}
				}
			}
		}
	}
}
MOTION
Frames: 4
Frame Time: 0.033333
33.814384 85.495483 4.275796 -6.421625 0.943961 5.459394 8.019601 2.651901 -2.180126 1.791358 0.921492 -0.511237 1.787627 0.772447 -0.478813 1.694320 5.330034 1.447753 0.111560 -12.082429 1.200238 0.000000 0.000000 -0.000000 -0.595443 -16.331998 -20.041822 12.916268 -0.137292 -35.670526 -0.003849 -90.127427 -0.004309 -130.242623 -8.993125 10.833940 -12.800128 -17.470111 4.121656 1.000135 0.731290 -1.438314 -7.335818 -0.421725 13.147353 -0.000000 -0.000001 -0.000002 6.410328 8.363746 -80.414576 1.722725 4.149869 -45.074416 0.636270 2.657137 -26.928217 0.000001 0.000003 -0.000007 4.717019 8.075535 -77.582295 2.056295 4.456879 -49.517666 1.539982 3.959692 -42.490620 0.000000 -0.000000 0.000005 2.434389 7.296050 -69.364061 3.297853 5.266353 -64.088669 0.787097 2.934907 -30.019566 -0.000000 -0.000002 0.000009 -3.532549 4.254363 -63.954586 3.402088 5.315506 -65.218949 1.034624 3.326102 -34.549825 0.000002 0.000000 -0.000002 0.765543 17.524988 12.025572 12.930012 22.274833 36.786087 -0.000035 98.862726 0.000057 -35.128735 -19.918956 23.329850 20.470557 7.475581 18.843580 4.151736 -12.160929 -33.847986 -6.346176 -41.944038 -36.535501 -0.000001 -0.000001 -0.000001 -0.887085 1.427986 12.684507 1.917398 -3.767465 53.934329 3.058003 -4.374568 69.896789 -0.000001 0.000000 0.000001 0.770901 -5.199598 54.618823 5.563849 -4.568230 101.238573 4.771460 -4.655758 91.407909 -0.000003 0.000001 -0.000006 6.934452 -8.544304 63.908769 2.909297 -4.317393 67.934721 1.862857 -3.727199 53.099448 0.000000 -0.000001 -0.000002 8.373382 -8.171756 73.989923 2.173686 -3.940974 57.745397 1.042016 -2.937909 39.049861 -0.000001 0.000000 0.000004 -19.451947 8.932455 11.430156 27.910752 -0.185392 0.384878 -0.541259 2.132583 -11.989221 -0.000003 0.000009 0.000001 -0.000000 0.000002 0.000000 -3.069316 -14.290193 -32.872956 35.344897 6.302966 3.163668 -12.000911 -19.845651 14.545786 -5.877420 -0.168271 4.726694 -0.000000 0.000001 -0.000000 
34.444244 85.954285 3.926867 -6.194453 0.106851 5.156943 8.330618 3.099789 -2.413425 1.836640 1.030170 -0.523839 1.831909 0.889844 -0.488042 1.776033 5.319377 1.564786 0.753119 -11.911708 1.665265 0.000000 -0.000000 -0.000000 -0.595443 -16.331998 -20.041822 12.809923 0.106243 -35.421197 0.005442 -90.214457 0.006139 -130.040067 -8.772184 11.349059 -12.800131 -17.470109 4.121651 1.000134 0.731288 -1.438313 -7.335820 -0.421726 13.147365 -0.000001 -0.000001 0.000002 6.410329 8.363748 -80.414570 1.722722 4.149866 -45.074413 0.636270 2.657132 -26.928209 0.000000 0.000005 -0.000003 4.717020 8.075537 -77.582295 2.056296 4.456880 -49.517666 1.539983 3.959693 -42.490620 -0.000002 -0.000001 0.000003 2.434389 7.296052 -69.364068 3.297851 5.266355 -64.088662 0.787096 2.934907 -30.019562 -0.000000 -0.000000 0.000001 -3.532548 4.254363 -63.954586 3.402086 5.315505 -65.218949 1.034621 3.326103 -34.549829 -0.000001 0.000003 -0.000001 0.730559 17.646081 12.220248 12.654017 22.050953 37.520381 0.000176 98.653606 -0.000175 -34.827421 -19.918046 23.585526 20.470552 7.475583 18.843585 4.151737 -12.160933 -33.847989 -6.346179 -41.944038 -36.535498 0.000002 -0.000001 0.000005 -0.887084 1.427991 12.684516 1.917400 -3.767460 53.934329 3.058000 -4.374568 69.896796 -0.000001 -0.000001 -0.000001 0.770904 -5.199596 54.618827 5.563848 -4.568228 101.238567 4.771460 -4.655762 91.407903 -0.000000 0.000000 -0.000009 6.934453 -8.544302 63.908775 2.909293 -4.317395 67.934714 1.862859 -3.727196 53.099451 0.000000 0.000002 -0.000001 8.373382 -8.171758 73.989923 2.173684 -3.940976 57.745397 1.042012 -2.937907 39.049868 -0.000001 0.000001 0.000007 -19.094779 9.057524 11.203696 27.245314 0.722103 0.397139 -0.350593 2.156815 -11.692649 -0.000001 0.000002 -0.000001 0.000000 0.000002 0.000000 -5.191500 -14.376264 -29.438904 38.650955 4.833186 1.354378 -12.955668 -17.472630 13.379231 -6.570320 -0.320711 6.467664 -0.000000 -0.000001 0.000000 
35.073620 86.433487 3.609557 -6.045559 -0.610560 4.930991 8.517078 3.626068 -2.775491 1.862801 1.168446 -0.536468 1.857748 1.036400 -0.502613 1.880282 5.313613 1.643021 1.467016 -11.789168 2.138339 -0.000000 0.000000 -0.000001 -0.595442 -16.331997 -20.041821 12.659278 0.293835 -35.167592 0.007895 -90.290825 0.008084 -129.865679 -8.555906 11.826549 -12.800127 -17.470113 4.121650 1.000133 0.731287 -1.438315 -7.335819 -0.421722 13.147359 -0.000002 -0.000001 0.000002 6.410331 8.363748 -80.414570 1.722724 4.149868 -45.074409 0.636271 2.657136 -26.928212 -0.000002 0.000001 0.000001 4.717018 8.075534 -77.582295 2.056297 4.456882 -49.517666 1.539981 3.959692 -42.490617 -0.000001 -0.000001 0.000003 2.434391 7.296053 -69.364068 3.297850 5.266353 -64.088662 0.787094 2.934908 -30.019562 0.000000 -0.000001 0.000006 -3.532548 4.254363 -63.954586 3.402087 5.315505 -65.218949 1.034623 3.326103 -34.549829 -0.000001 -0.000000 -0.000001 0.702991 17.745352 12.365244 12.374031 21.860473 38.173982 -0.000089 98.488848 0.000118 -34.577061 -19.918780 23.772490 20.470558 7.475585 18.843584 4.151739 -12.160930 -33.847983 -6.346181 -41.944031 -36.535501 -0.000001 0.000000 0.000001 -0.887084 1.427991 12.684510 1.917398 -3.767461 53.934329 3.058000 -4.374565 69.896789 -0.000002 -0.000001 -0.000001 0.770904 -5.199595 54.618823 5.563851 -4.568234 101.238573 4.771459 -4.655763 91.407903 -0.000002 0.000002 -0.000004 6.934452 -8.544301 63.908769 2.909296 -4.317396 67.934721 1.862858 -3.727199 53.099451 -0.000000 0.000001 0.000000 8.373384 -8.171760 73.989923 2.173685 -3.940975 57.745397 1.042013 -2.937905 39.049868 -0.000000 -0.000000 0.000006 -18.634136 9.230050 10.874863 26.434434 1.531405 0.404614 -0.074873 2.146046 -11.331277 0.000003 0.000002 -0.000001 0.000000 -0.000000 0.000000 -6.520248 -14.990957 -26.531889 40.726383 3.774598 0.061284 -13.958686 -15.170960 12.650255 -7.180247 -0.324720 6.516315 0.000000 -0.000002 0.000000 
35.654198 86.823395 3.269238 -6.017054 -1.127386 4.908919 8.589218 3.943807 -3.256111 1.876536 1.251679 -0.589238 1.870659 1.128824 -0.558307 1.974242 5.307289 1.701730 2.115618 -11.669943 2.640797 0.000000 0.000000 -0.000000 -0.595442 -16.332000 -20.041826 12.481519 0.412026 -34.933501 -0.007617 -90.361914 -0.006845 -129.738815 -8.369003 12.251321 -12.800128 -17.470108 4.121647 1.000134 0.731293 -1.438326 -7.335820 -0.421723 13.147357 0.000001 -0.000000 -0.000001 6.410328 8.363747 -80.414576 1.722727 4.149869 -45.074416 0.636270 2.657138 -26.928212 -0.000000 0.000000 -0.000002 4.717018 8.075534 -77.582295 2.056298 4.456879 -49.517666 1.539982 3.959692 -42.490620 0.000001 0.000003 0.000002 2.434389 7.296054 -69.364068 3.297852 5.266355 -64.088669 0.787095 2.934907 -30.019562 -0.000001 -0.000001 0.000004 -3.532547 4.254365 -63.954579 3.402086 5.315509 -65.218949 1.034623 3.326105 -34.549829 -0.000001 0.000002 -0.000004 0.687943 17.815143 12.428928 12.118050 21.732306 38.689186 -0.000033 98.384961 0.000046 -34.433412 -19.929208 23.859750 20.470557 7.475578 18.843582 4.151740 -12.160933 -33.847986 -6.346181 -41.944031 -36.535498 0.000001 0.000002 0.000002 -0.887087 1.427996 12.684511 1.917399 -3.767460 53.934329 3.058002 -4.374565 69.896789 -0.000000 0.000000 0.000001 0.770902 -5.199592 54.618827 5.563853 -4.568230 101.238573 4.771460 -4.655762 91.407903 -0.000001 0.000001 0.000003 6.934451 -8.544302 63.908769 2.909299 -4.317394 67.934721 1.862857 -3.727199 53.099451 0.000001 -0.000001 -0.000000 8.373382 -8.171757 73.989923 2.173681 -3.940978 57.745397 1.042020 -2.937906 39.049865 0.000000 -0.000000 0.000006 -18.173947 9.460616 10.345157 25.608538 2.172965 0.427405 0.307358 2.084313 -10.912559 0.000000 0.000002 0.000000 0.000000 -0.000000 -0.000000 -6.828813 -15.669625 -24.179915 41.976068 3.513408 -0.138851 -15.487565 -12.782193 11.895374 -8.070284 -0.409539 5.333547 -0.000000 0.000000 0.000000 
